<?xml version="1.0" standalone="no"?>
<!DOCTYPE svg PUBLIC "-//W3C//DTD SVG 20010904//EN"
 "http://www.w3.org/TR/2001/REC-SVG-20010904/DTD/svg10.dtd">
<svg version="1.0" xmlns="http://www.w3.org/2000/svg"
 width="221.000000pt" height="221.000000pt" viewBox="0 0 221.000000 221.000000"
 preserveAspectRatio="xMidYMid meet">
<metadata>
Created by potrace 1.14, written by Peter Selinger 2001-2017
</metadata>
<g transform="translate(0.000000,221.000000) scale(0.100000,-0.100000)"
fill="#000000" stroke="none">
<path d="M208 2202 l-208 -2 0 -1100 0 -1101 158 3 c142 3 157 5 156 21 -1 10
5 17 15 17 21 0 88 56 79 65 -4 4 -20 -2 -36 -14 -28 -19 -52 -27 -52 -17 0
13 44 76 53 78 7 0 17 2 23 2 27 3 74 72 74 108 0 15 5 30 10 33 6 3 10 1 10
-4 0 -6 7 -11 15 -11 11 0 15 9 13 29 -1 16 3 35 9 43 21 26 26 58 9 58 -9 0
-16 7 -16 15 0 7 -8 19 -18 24 -15 9 -15 10 -1 11 9 0 19 7 23 15 3 8 12 15
20 15 16 0 29 37 15 46 -5 3 -9 18 -9 35 0 19 -5 29 -15 29 -19 0 -19 24 -1
43 8 7 23 34 35 59 25 56 47 67 63 33 6 -14 16 -25 21 -25 5 0 4 -7 -4 -16 -8
-9 -23 -14 -39 -12 -22 3 -29 -1 -38 -26 -8 -20 -8 -34 -2 -40 6 -6 10 -19 10
-31 0 -16 2 -17 10 -5 5 8 10 25 10 37 0 24 51 58 73 49 9 -3 9 -5 0 -5 -18
-1 -16 -21 2 -21 8 0 15 -4 15 -10 0 -5 4 -10 9 -10 5 0 9 21 9 46 1 32 7 50
19 59 26 19 12 27 -19 11 -28 -15 -37 -12 -55 21 -17 30 -16 35 4 31 10 -2 25
4 34 13 9 9 23 21 31 25 22 13 32 64 13 64 -9 0 -15 -9 -15 -25 0 -19 -5 -25
-21 -25 -11 0 -17 -4 -14 -10 6 -9 0 -11 -45 -15 -8 0 -21 -4 -28 -9 -7 -4
-15 -6 -18 -3 -9 9 7 33 29 42 12 6 26 20 32 33 5 12 13 22 17 22 5 0 8 5 8
10 0 14 -33 13 -48 -2 -9 -9 -12 -9 -12 1 0 8 11 24 25 37 14 13 25 26 25 29
-1 21 1 25 10 20 6 -3 10 1 10 9 0 10 9 16 21 16 36 0 79 59 79 107 0 18 -4
24 -15 19 -12 -4 -15 3 -15 29 0 19 3 34 8 32 4 -1 8 1 9 6 2 4 9 20 16 35 8
15 12 33 10 40 -3 6 2 12 11 12 9 0 16 5 16 10 0 6 -7 10 -15 10 -8 0 -15 4
-15 9 0 5 9 7 20 4 11 -3 20 0 20 6 0 6 7 11 16 11 22 0 45 32 34 46 -16 18
25 72 52 69 12 -1 15 0 5 2 -13 3 -16 10 -11 21 3 9 6 25 6 35 0 10 7 21 16
25 20 7 51 42 52 58 0 6 15 17 33 25 28 11 66 38 119 84 10 8 34 17 54 19 20
3 41 9 47 15 5 5 22 8 37 5 17 -4 38 1 59 14 18 11 40 18 49 16 62 -11 71 -16
77 -35 6 -17 9 -19 17 -8 7 11 11 11 15 2 8 -21 26 -15 20 7 -5 19 3 24 31 21
6 -1 12 3 12 8 0 6 7 8 15 5 11 -4 13 -2 9 9 -3 8 0 18 6 22 15 9 44 -15 32
-27 -6 -6 -8 -17 -5 -27 3 -14 14 -16 59 -13 49 3 58 0 91 -27 21 -17 45 -31
54 -31 9 0 24 -10 32 -22 8 -13 28 -37 45 -55 16 -17 34 -52 41 -80 7 -26 20
-66 30 -88 26 -59 40 -105 47 -158 4 -26 10 -47 15 -47 4 0 7 -36 6 -79 -1
-52 3 -84 12 -95 7 -9 12 -37 11 -68 -2 -72 -1 -112 2 -190 3 -59 1 -68 -16
-72 -34 -9 -48 13 -41 63 l6 46 -20 -25 c-11 -14 -21 -43 -23 -65 -3 -34 -7
-40 -28 -43 -23 -2 -24 -1 -7 11 14 12 17 30 17 101 0 47 -4 86 -9 86 -12 0
-20 50 -12 73 6 16 9 15 31 -13 14 -18 30 -51 37 -74 6 -22 11 -33 12 -22 1
13 6 16 17 12 14 -6 15 -4 4 9 -13 16 -15 27 -24 123 -2 29 -11 63 -20 77 -10
15 -12 26 -6 30 6 3 10 17 10 31 0 14 -4 23 -9 20 -15 -10 -21 -82 -10 -115 6
-18 9 -34 7 -36 -7 -7 -48 75 -48 95 0 11 -4 22 -10 25 -5 3 -10 19 -10 35 0
16 -4 32 -10 35 -5 3 -11 16 -12 28 -4 62 -17 -159 -17 -294 -1 -233 -42 -401
-150 -604 -34 -64 -37 -74 -29 -115 4 -25 10 -58 12 -75 5 -38 16 -103 22
-132 4 -22 8 -23 134 -23 104 0 128 3 124 13 -3 8 -19 21 -37 30 l-32 16 53
-6 c53 -6 74 9 31 22 -23 8 -59 40 -59 54 0 4 11 6 25 3 17 -3 30 1 38 12 12
16 14 16 31 -3 11 -12 24 -21 30 -21 6 0 17 -9 24 -20 13 -21 32 -19 32 3 0 7
-13 27 -29 44 -17 19 -32 49 -36 73 -4 22 -11 42 -15 45 -5 3 -7 12 -3 20 3 9
-1 15 -11 15 -13 0 -14 -5 -6 -26 12 -32 4 -50 -16 -33 -8 6 -14 17 -14 23 0
6 -7 24 -15 39 -13 25 -13 29 1 34 8 3 20 1 27 -6 6 -6 23 -11 38 -11 21 0 31
-8 43 -32 9 -17 16 -38 16 -45 0 -18 38 -73 50 -73 15 0 -1 33 -24 52 -16 13
-18 20 -9 29 9 9 15 9 26 0 11 -9 17 -8 28 5 12 15 11 16 -7 10 -21 -6 -55 21
-66 55 -3 8 -24 21 -46 27 -29 9 -42 19 -46 37 -4 14 -13 25 -20 25 -26 0 -41
89 -22 131 6 14 -1 42 -22 79 -29 51 -33 63 -24 72 7 7 15 1 26 -18 15 -28 20
-21 17 18 -3 26 16 30 54 12 38 -18 51 -47 41 -91 -4 -14 -4 -29 1 -32 11 -8
32 -42 39 -63 4 -10 10 -18 14 -18 4 0 6 -27 4 -59 -2 -43 1 -63 11 -71 8 -7
15 -23 15 -37 0 -13 7 -26 18 -30 9 -4 20 -11 24 -17 4 -6 8 422 8 952 l0 962
-807 1 c-445 0 -848 1 -898 2 -49 1 -183 1 -297 -1z m1336 -58 c7 -19 -2 -37
-15 -29 -12 8 -12 45 0 45 5 0 12 -7 15 -16z m26 -95 c0 -10 -4 -19 -9 -19
-12 0 -23 29 -15 41 8 14 24 0 24 -22z m473 -104 c-3 -9 -8 -14 -10 -11 -3 3
-2 9 2 15 9 16 15 13 8 -4z m-1193 -16 c0 -5 -4 -9 -10 -9 -5 0 -10 7 -10 16
0 8 5 12 10 9 6 -3 10 -10 10 -16z m1141 -158 c-11 -38 -21 -78 -21 -89 0 -12
-4 -23 -9 -27 -12 -7 -9 54 3 73 4 7 3 19 -4 27 -8 9 -9 15 -2 15 6 0 14 15
17 33 7 29 24 51 33 42 3 -2 -5 -35 -17 -74z m-1174 -413 c-3 -8 -6 -5 -6 6
-1 11 2 17 5 13 3 -3 4 -12 1 -19z m-207 -478 c0 -5 -5 -10 -11 -10 -5 0 -7 5
-4 10 3 6 8 10 11 10 2 0 4 -4 4 -10z m-32 -45 c-2 -25 -9 -31 -21 -19 -6 7 9
44 18 44 3 0 4 -11 3 -25z m2 -65 c0 -5 -5 -10 -11 -10 -5 0 -7 5 -4 10 3 6 8
10 11 10 2 0 4 -4 4 -10z m-10 -50 c0 -5 -4 -10 -10 -10 -5 0 -10 5 -10 10 0
6 5 10 10 10 6 0 10 -4 10 -10z m1630 -238 c0 -9 -5 -24 -10 -32 -7 -11 -10
-5 -10 23 0 23 4 36 10 32 6 -3 10 -14 10 -23z m-297 -106 c-3 -20 -10 -36
-14 -36 -11 0 -12 35 -2 81 6 29 7 30 14 11 4 -11 5 -37 2 -56z m77 25 c0 -10
7 -22 16 -25 13 -5 14 -9 4 -21 -27 -33 -56 -6 -44 41 7 28 24 32 24 5z
m-1490 -7 c0 -14 -32 -35 -45 -30 -20 7 -19 24 3 29 26 7 42 8 42 1z m1500
-142 l-1 -27 -29 33 c-38 42 -38 57 0 37 22 -12 30 -22 30 -43z m50 -62 c0
-11 -4 -20 -9 -20 -11 0 -22 26 -14 34 12 12 23 5 23 -14z m-69 -13 c-10 -9
-11 -8 -5 6 3 10 9 15 12 12 3 -3 0 -11 -7 -18z"/>
<path d="M1598 1723 c6 -2 18 -2 25 0 6 3 1 5 -13 5 -14 0 -19 -2 -12 -5z"/>
<path d="M977 1515 c3 -8 9 -12 14 -9 12 7 11 11 -5 17 -10 4 -13 1 -9 -8z"/>
<path d="M1192 1421 c-7 -21 -12 -43 -12 -50 0 -15 27 -14 37 2 4 6 20 18 36
26 15 8 27 21 27 29 0 12 -3 12 -19 -2 -23 -21 -41 -14 -41 15 0 32 -16 21
-28 -20z"/>
<path d="M980 1438 c0 -9 5 -20 10 -23 13 -8 13 5 0 25 -8 13 -10 13 -10 -2z"/>
<path d="M1129 1442 c-1 -4 -2 -25 -3 -47 -1 -22 -6 -55 -11 -74 -8 -32 -7
-33 13 -22 12 6 27 21 33 32 14 27 3 105 -16 113 -8 3 -15 2 -16 -2z"/>
<path d="M921 1364 c0 -11 3 -14 6 -6 3 7 2 16 -1 19 -3 4 -6 -2 -5 -13z"/>
<path d="M978 1344 c-2 -5 1 -20 8 -34 8 -14 13 -18 13 -10 -1 24 -15 55 -21
44z"/>
<path d="M899 1310 c-24 -26 -35 -80 -18 -91 9 -5 14 -25 13 -54 -1 -26 4 -45
10 -45 7 0 10 31 9 92 -1 53 3 98 9 105 16 20 -5 14 -23 -7z"/>
<path d="M850 1290 c0 -5 5 -10 10 -10 6 0 10 5 10 10 0 6 -4 10 -10 10 -5 0
-10 -4 -10 -10z"/>
<path d="M1097 1273 c-4 -3 -7 -11 -7 -17 0 -6 5 -5 12 2 6 6 9 14 7 17 -3 3
-9 2 -12 -2z"/>
<path d="M834 1248 c3 -13 6 -45 7 -73 l2 -50 6 45 c7 55 2 100 -11 100 -6 0
-8 -10 -4 -22z"/>
<path d="M1337 1233 c-14 -4 -16 -8 -6 -19 6 -8 20 -14 30 -14 34 0 20 -15
-17 -18 -19 -1 -45 -7 -57 -14 -12 -7 -27 -12 -34 -13 -15 0 -83 -55 -83 -66
0 -21 31 -19 67 5 53 34 78 37 77 9 0 -12 3 -20 7 -18 4 3 9 -1 12 -9 7 -16
51 -26 69 -15 8 6 19 1 30 -14 14 -17 20 -19 26 -9 5 7 13 12 18 11 5 -2 25 5
44 13 19 9 29 17 22 17 -10 1 -10 6 -2 22 32 59 -117 157 -203 132z m173 -153
c0 -5 -4 -10 -9 -10 -6 0 -13 5 -16 10 -3 6 1 10 9 10 9 0 16 -4 16 -10z"/>
<path d="M1167 1218 c-9 -5 -17 -13 -17 -18 0 -14 23 -12 44 3 16 11 16 15 4
19 -8 3 -22 2 -31 -4z"/>
<path d="M1710 1121 c-14 -27 -14 -27 17 -27 22 1 28 -5 35 -31 8 -31 41 -63
64 -63 7 0 19 19 27 43 17 50 5 91 -25 84 -10 -3 -18 -1 -18 4 0 5 -9 4 -20
-3 -15 -10 -22 -10 -32 0 -18 18 -36 15 -48 -7z"/>
<path d="M830 1083 c-6 -16 -15 -36 -20 -45 -14 -25 -1 -22 21 4 11 11 19 32
19 45 0 31 -8 29 -20 -4z"/>
<path d="M867 1009 c-22 -39 -21 -44 4 -78 12 -16 19 -34 15 -39 -3 -6 -2 -13
4 -17 5 -3 10 -30 10 -60 0 -80 30 -86 35 -6 1 20 6 44 10 54 6 14 2 20 -14
24 -15 4 -21 13 -21 34 0 15 5 31 10 34 15 10 12 35 -5 35 -8 0 -16 5 -16 10
-1 6 -2 14 -3 19 -3 21 -12 18 -29 -10z"/>
<path d="M800 925 c-6 -8 -8 -20 -4 -26 4 -8 3 -9 -5 -5 -6 4 -14 1 -16 -7 -7
-16 11 -67 23 -67 16 0 30 45 20 64 -6 11 -6 21 2 31 6 8 7 16 2 19 -6 3 -15
-1 -22 -9z"/>
<path d="M760 761 c-7 -15 -7 -21 0 -21 12 0 25 28 17 36 -3 3 -10 -4 -17 -15z"/>
<path d="M833 738 c-20 -40 -26 -98 -11 -113 20 -21 -34 -180 -64 -188 -24 -7
-23 8 3 34 15 15 18 24 10 32 -15 15 -14 27 2 21 10 -4 13 9 11 58 -2 35 -3
75 -4 91 0 15 -6 27 -12 27 -9 0 -14 -19 -15 -54 -2 -52 -43 -163 -66 -177 -5
-4 -6 -12 -3 -18 4 -6 0 -11 -8 -11 -9 0 -16 -6 -16 -13 0 -8 -11 -19 -25 -25
-32 -15 -32 -28 0 -36 16 -4 23 -11 19 -18 -12 -19 -10 -78 4 -83 18 -7 15
-23 -8 -42 -17 -15 -18 -19 -5 -33 19 -21 8 -60 -17 -60 -18 0 -19 -2 -7 -16
8 -9 9 -18 3 -22 -5 -4 -10 -26 -10 -49 l-2 -43 157 0 156 0 1 43 c1 53 11
134 19 146 3 5 -1 11 -7 14 -23 8 -4 15 25 10 21 -4 27 -11 27 -30 0 -23 3
-25 29 -20 18 4 31 2 33 -5 2 -6 10 -8 17 -4 8 5 9 12 2 19 -6 8 -5 18 4 30
11 15 13 15 18 2 5 -11 15 -13 37 -9 23 5 29 3 25 -7 -3 -9 8 -21 30 -33 19
-10 37 -26 40 -35 3 -10 18 -17 40 -18 25 -1 42 -9 56 -27 12 -16 25 -23 32
-19 12 7 47 12 95 13 15 0 26 7 29 20 3 11 9 18 13 15 4 -2 22 7 40 20 l33 24
-27 7 c-14 3 -32 4 -40 1 -7 -3 -18 -1 -24 5 -5 5 -38 12 -73 15 -35 2 -73 8
-84 13 -11 5 -32 11 -47 14 -16 4 -28 13 -28 21 0 9 -10 15 -22 16 -69 2 -114
17 -99 32 12 12 -29 37 -61 37 -14 0 -18 5 -14 18 4 13 -3 25 -24 40 -16 13
-30 27 -30 33 0 6 -9 24 -21 40 -11 16 -18 29 -14 29 3 0 1 10 -6 21 -8 15
-13 18 -19 10 -5 -9 -9 -9 -13 3 -4 9 -1 16 5 16 7 0 3 7 -8 15 -18 14 -18 16
-1 29 26 20 22 70 -15 164 -2 4 -11 6 -21 5 -14 -2 -16 2 -11 22 10 39 -9 29
-33 -17z m217 -534 c0 -9 -5 -14 -12 -12 -18 6 -21 28 -4 28 9 0 16 -7 16 -16z
m-390 -128 c0 -2 -7 -6 -15 -10 -8 -3 -15 -1 -15 4 0 6 7 10 15 10 8 0 15 -2
15 -4z"/>
<path d="M1475 712 c-4 -12 27 -51 43 -53 4 0 16 -2 27 -5 42 -8 102 -6 123 5
29 15 28 29 -1 24 -14 -3 -34 5 -52 19 -23 17 -42 23 -82 23 -33 0 -55 -5 -58
-13z"/>
<path d="M2002 615 c6 -14 13 -23 16 -21 7 7 -9 46 -18 46 -5 0 -4 -11 2 -25z"/>
<path d="M684 596 c-4 -10 -2 -22 4 -28 8 -8 13 -7 18 6 4 10 2 22 -4 28 -8 8
-13 7 -18 -6z"/>
<path d="M1405 530 c-10 -16 55 -39 79 -30 12 5 34 11 50 15 23 5 27 8 15 16
-19 12 -136 11 -144 -1z"/>
<path d="M1626 521 c-3 -5 5 -11 19 -13 20 -4 23 -3 14 8 -13 16 -25 18 -33 5z"/>
<path d="M2020 480 c0 -5 5 -10 10 -10 6 0 10 5 10 10 0 6 -4 10 -10 10 -5 0
-10 -4 -10 -10z"/>
<path d="M2070 425 c0 -12 28 -35 44 -35 14 0 5 38 -10 44 -25 9 -34 7 -34 -9z"/>
<path d="M550 359 c0 -5 5 -7 10 -4 6 3 10 8 10 11 0 2 -4 4 -10 4 -5 0 -10
-5 -10 -11z"/>
<path d="M2195 231 c-3 -5 -1 -12 5 -16 5 -3 10 1 10 9 0 18 -6 21 -15 7z"/>
<path d="M1120 179 c0 -5 5 -7 10 -4 6 3 10 8 10 11 0 2 -4 4 -10 4 -5 0 -10
-5 -10 -11z"/>
<path d="M427 133 c-4 -3 -7 -11 -7 -17 0 -6 5 -5 12 2 6 6 9 14 7 17 -3 3 -9
2 -12 -2z"/>
<path d="M1005 110 c-3 -5 1 -10 10 -10 9 0 13 5 10 10 -3 6 -8 10 -10 10 -2
0 -7 -4 -10 -10z"/>
<path d="M483 71 c-7 -10 -9 -22 -6 -25 6 -6 32 23 33 37 0 14 -15 7 -27 -12z"/>
<path d="M2161 54 c0 -11 3 -14 6 -6 3 7 2 16 -1 19 -3 4 -6 -2 -5 -13z"/>
</g>
</svg>
